<svg width="48" height="37" viewBox="0 0 48 37" fill="none" xmlns="http://www.w3.org/2000/svg">
<path d="M49.0243 0.000421375C48.9032 -0.00348462 48.7664 0.0199524 48.6493 0.0629214C42.4149 2.35198 38.0985 7.99261 34.8055 13.5004C33.8172 15.1528 32.8368 16.8012 31.9305 18.5004C31.5399 19.227 31.1688 19.977 30.8055 20.7192C30.6727 20.9926 29.8953 23.0473 29.6805 23.0629C30.3211 23.016 30.9578 23.0004 31.6493 23.0004H31.9305C32.2508 22.3285 32.5477 21.6879 32.8055 21.1567C33.0477 20.7387 33.3133 20.2778 33.5868 19.7817C34.0008 19.52 35.1532 19.141 35.9305 18.8754C38.0555 18.1528 40.2313 17.3989 40.9618 16.0317C41.4891 15.0395 41.8055 13.7387 42.118 12.3754C42.3524 11.3442 42.5789 10.2739 42.9305 9.31292C44.0633 6.21527 47.1883 3.3637 49.5243 1.84417C49.95 1.56683 50.1258 1.01605 49.8993 0.562921C49.7274 0.223077 49.3875 0.00823438 49.0243 0.000421375ZM24.6805 17.0004C16.4618 17.0004 11.3094 25.77 8.1805 31.1879C4.8016 31.9653 1.00082 32.1528 0.961752 32.1567C0.606283 32.1723 0.282065 32.3715 0.118002 32.6879C-0.0460604 33.0043 -0.0421542 33.3871 0.149252 33.6879C0.23519 33.8246 2.30941 37.0004 8.08675 37.0004C9.96566 37.0004 12.7821 36.5434 15.7743 36.0629C18.7508 35.5864 21.8328 35.0942 23.8055 35.0942C28.8172 35.0942 31.4149 35.3989 32.3055 35.5317C33.0047 35.6371 33.7 35.3012 34.0555 34.6879L38.2118 27.5004C38.5008 26.9965 38.5047 26.395 38.243 25.8754C38.0125 25.4223 37.6063 25.1137 37.118 25.0004H31.6493C24.7586 25.0004 21.036 27.559 18.3055 29.4379C16.8758 30.4184 15.7313 31.2192 14.493 31.4379C14.4344 31.4496 14.3953 31.4379 14.3368 31.4379C13.8602 31.4379 13.4227 31.1098 13.3368 30.6254C13.2391 30.0825 13.6063 29.5668 14.1493 29.4692C14.9618 29.3246 15.95 28.6567 17.1805 27.8129C19.3719 26.3051 22.45 24.1723 27.3368 23.3442C28.45 20.977 29.2625 19.3325 29.743 18.4067C28.6141 17.6293 26.9696 17.0004 24.6805 17.0004Z" fill="#009688"/>
</svg>
